<svg xmlns="http://www.w3.org/2000/svg" width="56.25" viewBox="0 0 56.25 56.25" height="56.25" version="1.0"><defs><clipPath id="a"><path d="M 8 6 L 39 6 L 39 55.511719 L 8 55.511719 Z M 8 6"/></clipPath><clipPath id="b"><path d="M 7 5 L 40 5 L 40 55.511719 L 7 55.511719 Z M 7 5"/></clipPath></defs><g clip-path="url(#a)"><path fill="#FFDE59" d="M 35.980469 55.445312 L 10.65625 55.445312 C 9.332031 55.445312 8.234375 54.34375 8.234375 53.007812 L 8.234375 9.226562 C 8.234375 7.894531 9.332031 6.789062 10.65625 6.789062 L 35.945312 6.789062 C 37.273438 6.789062 38.367188 7.894531 38.367188 9.226562 L 38.367188 52.972656 C 38.402344 54.34375 37.308594 55.445312 35.980469 55.445312"/></g><g clip-path="url(#b)"><path fill="#FFF" d="M 35.980469 7.523438 C 36.910156 7.523438 37.671875 8.292969 37.671875 9.226562 L 37.671875 53.007812 C 37.671875 53.941406 36.910156 54.710938 35.980469 54.710938 L 10.65625 54.710938 C 9.730469 54.710938 8.964844 53.941406 8.964844 53.007812 L 8.964844 9.226562 C 8.964844 8.292969 9.730469 7.523438 10.65625 7.523438 L 35.980469 7.523438 M 35.980469 5.957031 L 10.65625 5.957031 C 8.867188 5.957031 7.40625 7.425781 7.40625 9.226562 L 7.40625 53.007812 C 7.40625 54.808594 8.867188 56.277344 10.65625 56.277344 L 35.980469 56.277344 C 37.773438 56.277344 39.230469 54.808594 39.230469 53.007812 L 39.230469 9.226562 C 39.230469 7.425781 37.773438 5.957031 35.980469 5.957031"/></g><path fill="#FF914D" d="M 40.117188 52.183594 L 14.792969 52.183594 C 13.464844 52.183594 12.371094 51.097656 12.371094 49.78125 L 12.371094 6.644531 C 12.371094 5.328125 13.464844 4.242188 14.792969 4.242188 L 40.082031 4.242188 C 41.410156 4.242188 42.503906 5.328125 42.503906 6.644531 L 42.503906 49.75 C 42.539062 51.097656 41.441406 52.183594 40.117188 52.183594"/><path fill="#FFF" d="M 40.117188 4.964844 C 41.042969 4.964844 41.808594 5.722656 41.808594 6.644531 L 41.808594 49.78125 C 41.808594 50.703125 41.042969 51.460938 40.117188 51.460938 L 14.792969 51.460938 C 13.863281 51.460938 13.101562 50.703125 13.101562 49.78125 L 13.101562 6.644531 C 13.101562 5.722656 13.863281 4.964844 14.792969 4.964844 L 40.117188 4.964844 M 40.117188 3.417969 L 14.792969 3.417969 C 13.003906 3.417969 11.542969 4.867188 11.542969 6.644531 L 11.542969 49.78125 C 11.542969 51.558594 13.003906 53.007812 14.792969 53.007812 L 40.117188 53.007812 C 41.90625 53.007812 43.367188 51.558594 43.367188 49.78125 L 43.367188 6.644531 C 43.367188 4.867188 41.90625 3.417969 40.117188 3.417969"/><path fill="#FF5757" d="M 44.941406 48.765625 L 19.617188 48.765625 C 18.292969 48.765625 17.195312 47.679688 17.195312 46.363281 L 17.195312 3.226562 C 17.195312 1.910156 18.292969 0.824219 19.617188 0.824219 L 44.90625 0.824219 C 46.234375 0.824219 47.328125 1.910156 47.328125 3.226562 L 47.328125 46.332031 C 47.363281 47.679688 46.265625 48.765625 44.941406 48.765625"/><path fill="#FFF" d="M 44.941406 1.546875 C 45.867188 1.546875 46.632812 2.304688 46.632812 3.226562 L 46.632812 46.363281 C 46.632812 47.285156 45.867188 48.042969 44.941406 48.042969 L 19.617188 48.042969 C 18.691406 48.042969 17.925781 47.285156 17.925781 46.363281 L 17.925781 3.226562 C 17.925781 2.304688 18.691406 1.546875 19.617188 1.546875 L 44.941406 1.546875 M 44.941406 0 L 19.617188 0 C 17.828125 0 16.367188 1.449219 16.367188 3.226562 L 16.367188 46.363281 C 16.367188 48.140625 17.828125 49.589844 19.617188 49.589844 L 44.941406 49.589844 C 46.730469 49.589844 48.191406 48.140625 48.191406 46.363281 L 48.191406 3.226562 C 48.191406 1.449219 46.730469 0 44.941406 0"/></svg>